<svg width="25" height="26" viewBox="0 0 25 26" fill="none" xmlns="http://www.w3.org/2000/svg">
<g id="fluent:eye-16-regular">
<path id="Vector" d="M4.66354 13.9766V13.9813C4.63723 14.0805 4.59161 14.1736 4.5293 14.2552C4.46698 14.3368 4.3892 14.4053 4.30039 14.4568C4.21158 14.5083 4.11348 14.5418 4.01172 14.5554C3.90995 14.569 3.8065 14.5624 3.70729 14.5359C3.03385 14.3578 3.1526 13.5812 3.1526 13.5812L3.18073 13.4844C3.18073 13.4844 3.22135 13.3531 3.25417 13.2578C3.65514 12.1336 4.24541 11.0862 4.99948 10.1609C6.40104 8.45156 8.75885 6.75 12.501 6.75C16.2432 6.75 18.601 8.45156 20.0042 10.1609C20.7582 11.0862 21.3485 12.1336 21.7495 13.2578C21.7831 13.3544 21.8143 13.4519 21.8432 13.55L21.8479 13.5703V13.5766L21.8495 13.5797C21.899 13.7785 21.8685 13.9889 21.7644 14.1654C21.6603 14.342 21.491 14.4705 21.293 14.5234C21.095 14.5763 20.8842 14.5493 20.7059 14.4481C20.5277 14.347 20.3963 14.1799 20.3401 13.9828L20.3385 13.9766L20.326 13.9375C20.2375 13.6609 20.1331 13.3897 20.0135 13.125C19.6951 12.4168 19.2854 11.7534 18.7948 11.1516C17.6354 9.7375 15.6948 8.3125 12.501 8.3125C9.30729 8.3125 7.36823 9.7375 6.20729 11.1516C5.57057 11.9336 5.07129 12.818 4.73073 13.7672C4.71142 13.8236 4.69319 13.8804 4.67604 13.9375L4.66354 13.9766ZM12.501 11.4375C11.465 11.4375 10.4715 11.8491 9.73891 12.5816C9.00634 13.3142 8.59479 14.3077 8.59479 15.3438C8.59479 16.3798 9.00634 17.3733 9.73891 18.1059C10.4715 18.8384 11.465 19.25 12.501 19.25C13.537 19.25 14.5306 18.8384 15.2632 18.1059C15.9957 17.3733 16.4073 16.3798 16.4073 15.3438C16.4073 14.3077 15.9957 13.3142 15.2632 12.5816C14.5306 11.8491 13.537 11.4375 12.501 11.4375ZM10.1573 15.3438C10.1573 14.7221 10.4042 14.126 10.8438 13.6865C11.2833 13.2469 11.8794 13 12.501 13C13.1226 13 13.7188 13.2469 14.1583 13.6865C14.5979 14.126 14.8448 14.7221 14.8448 15.3438C14.8448 15.9654 14.5979 16.5615 14.1583 17.001C13.7188 17.4406 13.1226 17.6875 12.501 17.6875C11.8794 17.6875 11.2833 17.4406 10.8438 17.001C10.4042 16.5615 10.1573 15.9654 10.1573 15.3438Z" fill="black"/>
</g>
</svg>
